<?xml version="1.0" encoding="UTF-8" standalone="no"?>
<svg
   xmlns:dc="http://purl.org/dc/elements/1.1/"
   xmlns:cc="http://creativecommons.org/ns#"
   xmlns:rdf="http://www.w3.org/1999/02/22-rdf-syntax-ns#"
   xmlns:svg="http://www.w3.org/2000/svg"
   xmlns="http://www.w3.org/2000/svg"
   viewBox="0 0 159.77333 150.01466"
   height="150.01466"
   width="159.77333"
   xml:space="preserve"
   id="svg2"
   version="1.1"><metadata
     id="metadata8"><rdf:RDF><cc:Work
         rdf:about=""><dc:format>image/svg+xml</dc:format><dc:type
           rdf:resource="http://purl.org/dc/dcmitype/StillImage" /></cc:Work></rdf:RDF></metadata><defs
     id="defs6"><clipPath
       id="clipPath18"
       clipPathUnits="userSpaceOnUse"><path
         id="path16"
         d="M 0,112.511 H 119.83 V 0 H 0 Z" /></clipPath></defs><g
     transform="matrix(1.3333333,0,0,-1.3333333,0,150.01467)"
     id="g10"><g
       id="g12"><g
         clip-path="url(#clipPath18)"
         id="g14"><g
           transform="translate(63.6641,68.6045)"
           id="g20"><path
             id="path22"
             style="fill:#015e5b;fill-opacity:1;fill-rule:nonzero;stroke:none"
             d="M 0,0 C -0.123,0.001 -0.311,-0.021 -0.554,-0.075 -0.924,-0.158 -1.308,-0.26 -1.693,-0.379 -1.864,-0.432 -2.06,-0.497 -2.286,-0.576 -2.325,-0.58 -2.363,-0.585 -2.405,-0.594 -2.485,-0.612 -2.555,-0.646 -2.606,-0.69 -3.032,-0.848 -3.451,-1.022 -3.854,-1.207 -4.035,-1.291 -4.229,-1.386 -4.439,-1.494 l -0.284,-0.143 c -0.038,-0.019 -0.086,-0.046 -0.14,-0.077 -0.056,-0.032 -0.11,-0.064 -0.162,-0.099 -0.102,-0.07 -0.163,-0.194 -0.153,-0.309 0.015,-0.136 0.136,-0.258 0.281,-0.284 l 0.094,-0.014 c 0.116,-0.011 0.223,0.007 0.332,0.053 0.095,0.044 0.19,0.087 0.296,0.132 0.035,0.016 0.068,0.038 0.096,0.065 0.305,0.156 0.483,0.247 0.535,0.273 0.253,0.12 0.532,0.243 0.839,0.369 0.023,-0.448 0.061,-1.02 0.114,-1.744 0.073,-0.944 0.161,-1.7 0.261,-2.247 0.047,-0.245 0.089,-0.425 0.128,-0.55 0.107,-0.337 0.305,-0.554 0.59,-0.644 0.061,-0.018 0.129,-0.027 0.189,-0.027 0.041,0 0.08,0.004 0.111,0.012 0.035,0.003 0.07,0.01 0.102,0.021 0.025,0.008 0.052,0.019 0.081,0.033 0.113,0.058 0.196,0.18 0.201,0.298 0.003,0.124 -0.083,0.252 -0.205,0.305 -0.049,0.021 -0.099,0.104 -0.138,0.221 -0.023,0.073 -0.055,0.213 -0.095,0.416 -0.056,0.271 -0.107,0.603 -0.152,0.988 -0.069,0.573 -0.134,1.355 -0.195,2.322 l -0.03,0.541 c -0.01,0.155 -0.018,0.29 -0.026,0.406 0.345,0.116 0.703,0.226 1.064,0.325 0.123,0.034 0.306,0.081 0.539,0.139 0.019,0.004 0.03,0.006 0.038,0.007 0.079,-0.059 0.195,-0.081 0.269,-0.085 0.054,0.001 0.105,0.008 0.165,0.024 0.066,0.024 0.192,0.091 0.243,0.188 0.042,0.081 0.047,0.176 0.013,0.259 C 0.514,-0.205 0.376,-0.01 0,0" /></g><g
           transform="translate(68.0439,64.8794)"
           id="g24"><path
             id="path26"
             style="fill:#015e5b;fill-opacity:1;fill-rule:nonzero;stroke:none"
             d="m 0,0 c -0.053,0.011 -0.107,0.016 -0.182,0.013 -0.13,-0.01 -0.231,-0.056 -0.304,-0.139 -0.079,-0.092 -0.149,-0.17 -0.211,-0.235 -0.059,-0.064 -0.133,-0.138 -0.22,-0.22 -0.077,-0.072 -0.15,-0.131 -0.217,-0.174 -0.076,-0.047 -0.158,-0.091 -0.245,-0.131 -0.066,-0.03 -0.132,-0.047 -0.199,-0.053 -0.075,-0.003 -0.153,0.002 -0.23,0.021 -0.234,0.057 -0.42,0.181 -0.564,0.377 -0.136,0.186 -0.233,0.45 -0.291,0.786 -0.083,0.508 -0.049,1.033 0.1,1.562 0.149,0.537 0.397,1.045 0.737,1.511 0.222,0.305 0.446,0.558 0.664,0.752 0.072,0.064 0.104,0.092 0.141,0.108 C -0.976,4.147 -0.94,4.1 -0.916,4.039 -0.87,3.896 -0.708,3.812 -0.577,3.812 h 0.003 c 0.044,0 0.088,0.005 0.132,0.016 0.139,0.035 0.26,0.157 0.28,0.288 0.007,0.047 0.003,0.092 -0.011,0.137 L -0.219,4.391 C -0.231,4.428 -0.256,4.481 -0.296,4.549 -0.343,4.628 -0.399,4.694 -0.468,4.746 -0.654,4.885 -0.898,4.929 -1.202,4.875 -1.31,4.857 -1.415,4.822 -1.518,4.77 -1.607,4.726 -1.686,4.682 -1.753,4.634 -1.818,4.589 -1.891,4.527 -1.977,4.446 -2.056,4.371 -2.113,4.312 -2.149,4.272 L -2.299,4.103 C -2.796,3.541 -3.167,2.922 -3.402,2.264 -3.645,1.584 -3.727,0.908 -3.646,0.254 c 0.057,-0.436 0.175,-0.803 0.354,-1.092 0.231,-0.37 0.563,-0.618 0.98,-0.736 0.19,-0.056 0.389,-0.084 0.593,-0.084 0.052,0 0.105,0.002 0.157,0.006 0.167,0.011 0.332,0.041 0.488,0.09 0.087,0.028 0.171,0.062 0.25,0.1 0.215,0.102 0.408,0.239 0.576,0.408 0.152,0.152 0.31,0.338 0.449,0.53 0.073,0.087 0.098,0.206 0.062,0.312 C 0.224,-0.103 0.101,-0.023 0,0" /></g><g
           transform="translate(74.3027,71.5083)"
           id="g28"><path
             id="path30"
             style="fill:#015e5b;fill-opacity:1;fill-rule:nonzero;stroke:none"
             d="M 0,0 C -0.048,0.115 -0.184,0.31 -0.56,0.319 -0.687,0.323 -0.866,0.3 -1.115,0.245 -1.485,0.162 -1.869,0.06 -2.255,-0.06 -2.425,-0.113 -2.621,-0.177 -2.847,-0.256 -2.886,-0.26 -2.924,-0.265 -2.966,-0.274 -3.047,-0.292 -3.115,-0.326 -3.169,-0.371 -3.588,-0.526 -4.006,-0.7 -4.415,-0.888 -4.595,-0.972 -4.79,-1.066 -5,-1.174 l -0.283,-0.144 c -0.038,-0.019 -0.085,-0.045 -0.141,-0.077 -0.057,-0.032 -0.108,-0.064 -0.165,-0.101 -0.101,-0.07 -0.159,-0.19 -0.149,-0.305 0.014,-0.137 0.134,-0.26 0.281,-0.285 l 0.094,-0.015 c 0.115,-0.009 0.223,0.009 0.331,0.053 0.095,0.045 0.19,0.088 0.297,0.132 0.034,0.016 0.068,0.039 0.096,0.065 0.304,0.156 0.484,0.248 0.535,0.273 0.255,0.121 0.537,0.245 0.839,0.37 0.024,-0.459 0.062,-1.043 0.115,-1.744 0.072,-0.945 0.16,-1.701 0.26,-2.247 0.046,-0.246 0.088,-0.426 0.127,-0.551 0.107,-0.335 0.305,-0.552 0.59,-0.644 0.061,-0.018 0.128,-0.026 0.188,-0.026 0.041,0 0.079,0.003 0.11,0.012 0.036,0.002 0.07,0.009 0.104,0.02 0.026,0.009 0.052,0.019 0.082,0.034 0.112,0.057 0.197,0.181 0.201,0.297 0.003,0.124 -0.083,0.253 -0.204,0.306 -0.05,0.021 -0.102,0.104 -0.139,0.22 -0.023,0.074 -0.056,0.215 -0.096,0.417 -0.056,0.275 -0.106,0.598 -0.151,0.988 -0.069,0.565 -0.134,1.347 -0.195,2.322 l -0.032,0.541 c -0.008,0.154 -0.017,0.289 -0.024,0.405 0.335,0.114 0.693,0.224 1.064,0.326 0.123,0.034 0.305,0.08 0.538,0.138 0.018,0.004 0.031,0.007 0.041,0.008 0.073,-0.054 0.183,-0.085 0.262,-0.085 h 0.005 c 0.056,0.001 0.107,0.008 0.163,0.024 0.063,0.022 0.195,0.09 0.245,0.19 C 0.03,-0.175 0.034,-0.082 0,0" /></g><g
           transform="translate(75.3701,86.9199)"
           id="g32"><path
             id="path34"
             style="fill:#015e5b;fill-opacity:1;fill-rule:nonzero;stroke:none"
             d="m 0,0 c 0,-0.002 -0.002,-0.004 -0.003,-0.007 -0.02,0.018 -0.04,0.039 -0.051,0.058 -0.104,0.184 -0.092,0.413 0.033,0.645 0.011,0.02 0.022,0.041 0.035,0.062 C 0.015,0.5 0.012,0.242 0,0 m -31.919,-13.021 c -0.163,0.076 -0.314,0.181 -0.469,0.328 0.076,-0.022 0.151,-0.046 0.222,-0.072 0.086,-0.032 0.19,-0.119 0.252,-0.208 -10e-4,-0.013 -0.003,-0.029 -0.005,-0.048 m 11.19,-6.025 0.198,0.038 c 1.756,0.343 3.571,0.698 5.343,1.123 2.557,0.614 5.917,1.432 9.209,2.325 2.124,0.576 4.577,1.289 6.834,2.483 0.425,0.224 0.774,0.485 1.04,0.775 0.308,0.338 0.426,0.744 0.323,1.114 -0.1,0.366 -0.404,0.649 -0.833,0.776 -0.483,0.144 -1.02,0.223 -1.596,0.232 l -0.23,0.002 c -1.613,0 -3.173,-0.27 -4.9,-0.596 -2.928,-0.554 -5.667,-1.444 -7.961,-2.241 -2.588,-0.9 -4.478,-1.783 -6.129,-2.864 -0.987,-0.646 -1.927,-1.31 -2.561,-2.317 -0.004,-0.002 -0.038,-0.024 -0.196,-0.063 -0.295,-0.078 -0.591,-0.151 -0.888,-0.222 l -0.034,-0.009 c -0.391,-0.096 -0.795,-0.196 -1.19,-0.303 -0.248,-0.067 -0.508,-0.178 -0.794,-0.34 -0.394,-0.221 -0.616,-0.475 -0.677,-0.778 -0.06,-0.3 0.045,-0.618 0.323,-0.974 0.175,-0.223 0.36,-0.442 0.552,-0.667 l 0.038,-0.046 c 0.236,-0.277 0.481,-0.564 0.696,-0.858 0.253,-0.341 0.479,-0.734 0.674,-1.168 0.094,-0.209 0.114,-0.382 0.059,-0.517 -0.051,-0.124 -0.175,-0.225 -0.369,-0.3 -0.46,-0.179 -0.961,-0.296 -1.451,-0.339 -1.338,-0.12 -2.758,0.097 -4.466,0.679 -2.724,0.929 -4.913,2.259 -6.693,4.067 -0.992,1.008 -1.648,2.068 -2.005,3.24 -0.551,1.806 -0.024,2.938 1.71,3.669 0.825,0.349 1.753,0.544 2.746,0.582 0.021,-0.004 0.1,-0.042 0.173,-0.111 0.137,-0.132 0.27,-0.274 0.408,-0.422 0.224,-0.24 0.477,-0.512 0.772,-0.737 0.292,-0.221 0.607,-0.308 0.913,-0.254 0.272,0.049 0.507,0.212 0.662,0.459 0.345,0.545 0.171,1.227 -0.412,1.618 -0.555,0.374 -1.171,0.449 -1.769,0.522 -0.052,0.006 -0.117,0.037 -0.114,0.029 -1.002,1.905 -1.397,3.658 -1.208,5.359 0.231,2.072 1.434,3.485 3.576,4.2 1.261,0.42 2.661,0.467 4.406,0.149 0.552,-0.101 1.118,-0.138 1.697,-0.169 0.648,-0.043 1.218,0.244 1.583,0.804 0.295,0.455 0.603,0.95 0.853,1.482 2.015,4.297 5.513,7.229 10.396,8.715 1.833,0.558 3.681,0.544 5.491,-0.043 2.511,-0.812 4.303,-2.167 5.477,-4.142 0.47,-0.79 0.788,-1.681 0.947,-2.633 -0.002,-0.021 -0.027,-0.075 -0.04,-0.088 -0.437,-0.372 -0.94,-0.903 -0.966,-1.708 -0.01,-0.319 0.079,-0.682 0.27,-1.11 0.184,-0.411 0.669,-0.607 1.08,-0.444 0.212,0.086 0.628,0.344 0.687,0.713 0.084,0.516 0.121,1.086 0.115,1.743 L 1.038,1.486 C 1.035,1.725 1.035,1.725 1.309,1.804 3.422,2.417 5.144,2.449 6.725,1.906 8.628,1.25 9.886,-0.16 10.463,-2.285 11.31,-5.395 9.775,-8.422 6.648,-9.817 5.602,-10.284 4.434,-10.599 3.077,-10.781 2.473,-10.863 2.394,-11.25 2.39,-11.578 c -0.021,-2.477 0.274,-5.068 0.878,-7.703 0.212,-0.928 0.461,-1.851 0.7,-2.743 0.101,-0.376 0.201,-0.752 0.301,-1.129 L 1.483,-23.57 c 0.296,0.531 0.578,1.035 0.858,1.516 0.026,0.01 0.064,0.02 0.107,0.033 0.038,0.012 0.076,0.024 0.115,0.038 0.032,0.013 0.067,0.023 0.134,0.042 0.053,0.014 0.104,0.029 0.155,0.047 0.692,0.262 0.563,0.792 0.507,0.948 -0.063,0.178 -0.2,0.317 -0.386,0.389 -0.224,0.089 -0.49,0.069 -0.726,-0.051 -0.052,-0.024 -0.158,-0.073 -0.23,-0.185 -0.237,-0.367 -0.616,-0.446 -1.095,-0.546 -0.124,-0.025 -0.251,-0.052 -0.375,-0.084 -4.375,-1.152 -7.858,-2.328 -10.961,-3.701 -2.156,-0.952 -4.297,-2.183 -6.738,-3.874 -0.218,-0.15 -0.439,-0.294 -0.726,-0.479 l -0.017,0.054 c -0.102,0.344 -0.199,0.67 -0.331,0.999 -0.636,1.581 -1.348,3.322 -2.242,5.478 l -0.092,0.22 c -0.346,0.833 -0.705,1.694 -0.821,2.595 l -0.006,0.047 -0.004,0.033 c -0.007,0.064 -0.015,0.129 -0.017,0.192 -0.024,0.674 -0.024,0.674 0.679,0.813 m 15.295,7.169 c 1.496,0.312 3.106,0.608 4.755,0.659 0.056,0.003 0.113,0.004 0.17,0.004 0.238,0 0.488,-0.021 0.751,-0.044 l 0.079,-0.006 c 0.14,-0.012 0.283,-0.024 0.42,-0.033 0.034,-0.002 0.059,-0.005 0.076,-0.008 0.048,-0.032 0.101,-0.064 0.155,-0.097 0.091,-0.056 0.155,-0.097 0.185,-0.117 -0.022,-0.064 -0.085,-0.17 -0.13,-0.197 l -0.111,-0.066 c -0.662,-0.391 -1.347,-0.797 -2.056,-1.085 -2.285,-0.927 -4.879,-1.73 -8.161,-2.525 -2.742,-0.665 -5.571,-1.303 -8.066,-1.866 -1,-0.225 -1.999,-0.451 -2.997,-0.679 -0.03,-0.006 -0.06,-0.013 -0.09,-0.019 0.066,0.065 0.134,0.129 0.204,0.189 1.375,1.182 3.013,1.987 4.434,2.62 3.142,1.398 6.538,2.468 10.382,3.27 m 0.107,-30.81 c 0.042,0.287 0.085,0.559 0.156,0.816 0.445,1.61 0.935,3.281 1.368,4.756 l 0.038,0.134 c 0.004,0.012 0.011,0.025 0.017,0.037 l 0.026,0.003 c 0.411,0.057 0.837,0.116 1.243,0.116 l 0.074,-10e-4 c 0.25,-0.004 0.372,-0.222 0.43,-0.405 0.159,-0.493 0.1,-1.024 -0.185,-1.677 -0.694,-1.596 -1.761,-2.866 -3.167,-3.779 m 6.928,0.505 h 0.001 z m 0.11,-0.057 c 0.427,0.757 0.868,1.539 1.519,2.119 0.118,0.104 0.213,0.154 0.278,0.158 0.023,-0.006 0.101,-0.068 0.178,-0.264 l 0.011,-0.055 c 0.012,-0.063 0.024,-0.115 0.048,-0.157 0.049,-0.164 0.113,-0.437 0.139,-0.703 0.016,-0.155 -0.016,-0.372 -0.07,-0.463 -0.057,-0.101 -0.127,-0.227 -0.185,-0.356 -0.071,-0.164 -0.137,-0.333 -0.201,-0.498 L 3.41,-42.504 c -0.095,-0.249 -0.203,-0.531 -0.334,-0.783 -1.001,-1.922 -2.405,-3.719 -4.55,-5.82 0.896,2.192 1.912,4.615 3.183,6.864 z m 4.097,-12.729 c 0.116,0.267 0.231,0.518 0.373,0.738 0.575,0.889 1.348,1.475 2.298,1.741 0.135,0.038 0.288,0.057 0.438,0.057 0.104,0 0.208,-0.008 0.308,-0.027 0.158,-0.031 0.277,-0.114 0.325,-0.228 0.046,-0.106 0.025,-0.24 -0.057,-0.368 C 9.38,-53.229 9.149,-53.54 8.871,-53.668 8.021,-54.06 7.12,-54.43 6.246,-54.788 l -0.06,-0.025 C 6.06,-54.865 5.934,-54.917 5.808,-54.968 m 12.091,5.013 c 0.023,0.056 0.048,0.112 0.074,0.17 l 0.015,0.036 c 0.024,0.053 0.047,0.104 0.066,0.153 0.027,0.066 0.053,0.131 0.079,0.196 l 0.148,0.368 c 0.14,0.336 0.282,0.671 0.425,1.006 0.024,0.058 0.05,0.114 0.077,0.172 0.032,0.065 0.063,0.131 0.091,0.197 l 0.13,0.304 c 0.858,2.007 1.746,4.082 2.924,5.962 0.241,0.385 0.519,0.747 0.827,1.079 0.044,0.048 0.079,0.082 0.106,0.104 0.015,-0.035 0.035,-0.086 0.053,-0.16 0.24,-0.904 0.223,-1.813 -0.051,-2.695 -0.152,-0.483 -0.366,-0.979 -0.554,-1.417 l -0.183,-0.424 c -0.129,-0.307 -0.264,-0.626 -0.439,-0.895 -0.113,-0.175 -0.262,-0.348 -0.397,-0.508 -0.132,-0.156 -0.269,-0.319 -0.39,-0.501 -0.413,-0.62 -0.946,-1.159 -1.46,-1.649 -0.365,-0.348 -0.732,-0.707 -1.086,-1.054 -0.153,-0.148 -0.304,-0.297 -0.455,-0.444 m -3.197,-5.819 -0.493,-1.456 -0.932,0.778 z m -2.199,-11.188 c 0.526,2.712 1.342,5.31 2.14,7.739 1.147,-1.447 1.745,-2.834 1.877,-4.343 0.132,-1.532 -0.322,-2.979 -1.39,-4.427 -0.789,-1.071 -1.79,-1.907 -2.574,-2.515 -0.094,-0.073 -0.226,-0.126 -0.388,-0.186 -0.059,0.159 -0.115,0.319 -0.104,0.435 0.121,1.238 0.24,2.272 0.439,3.297 m 13.667,14.669 c -0.014,0.011 -0.027,0.023 -0.063,0.055 -0.082,0.075 -0.193,0.177 -0.363,0.202 -0.281,0.041 -0.57,0.045 -0.825,0.048 -2.337,0.015 -4.69,-0.442 -7.423,-1.465 -0.345,-0.13 -0.68,-0.264 -1.03,-0.404 0.226,0.62 0.459,1.255 0.695,1.879 0.024,0.062 0.102,0.175 0.151,0.215 l 0.478,0.401 c 0.984,0.821 2.002,1.671 2.805,2.747 0.225,0.301 0.484,0.589 0.743,0.877 0.252,0.28 0.514,0.568 0.752,0.882 0.148,0.196 0.262,0.412 0.379,0.637 0.133,0.254 0.295,0.519 0.439,0.752 0.198,0.321 0.422,0.685 0.589,1.067 0.657,1.499 0.789,2.91 0.401,4.314 -0.183,0.663 -0.519,0.878 -0.77,0.942 -0.25,0.06 -0.645,0.034 -1.11,-0.447 -0.407,-0.419 -0.82,-0.882 -1.096,-1.42 -0.974,-1.909 -1.895,-3.842 -2.667,-5.479 -0.165,-0.353 -0.297,-0.733 -0.423,-1.099 -0.076,-0.219 -0.154,-0.443 -0.242,-0.661 -0.066,-0.165 -0.151,-0.33 -0.225,-0.477 -0.077,-0.148 -0.155,-0.301 -0.221,-0.46 -0.051,-0.114 -0.078,-0.234 -0.111,-0.376 -0.015,-0.069 -0.031,-0.136 -0.056,-0.201 -0.048,-0.117 -0.107,-0.234 -0.167,-0.356 -0.068,-0.133 -0.143,-0.285 -0.205,-0.445 l -0.056,-0.152 c -0.131,-0.362 -0.234,-0.647 -0.554,-0.767 -0.136,-0.052 -0.217,-0.15 -0.279,-0.224 -0.01,-0.013 -0.023,-0.03 -0.031,-0.039 l -0.089,-0.07 c -0.137,-0.113 -0.292,-0.24 -0.449,-0.342 -0.286,-0.187 -0.58,-0.37 -0.865,-0.548 l -0.489,-0.307 c -0.056,-0.036 -0.092,-0.076 -0.107,-0.101 l -0.152,-0.111 c -0.105,-0.076 -0.222,-0.164 -0.34,-0.228 -0.239,-0.134 -0.48,-0.264 -0.725,-0.395 l -0.08,-0.043 c -0.237,-0.128 -0.481,-0.258 -0.72,-0.393 -0.133,-0.076 -0.261,-0.162 -0.389,-0.248 -0.138,-0.095 -0.298,-0.203 -0.451,-0.278 -0.284,-0.134 -0.582,-0.256 -0.92,-0.394 l -0.05,-0.021 c -0.185,-0.074 -0.37,-0.15 -0.554,-0.23 -0.131,-0.057 -0.26,-0.121 -0.41,-0.197 -0.198,-0.1 -0.402,-0.203 -0.6,-0.266 -0.483,-0.149 -1.015,-0.28 -1.674,-0.412 -0.216,-0.042 -0.455,-0.055 -0.713,-0.041 -0.106,0.007 -0.23,0.117 -0.261,0.226 0.003,0 0.006,0 0.008,0 0.065,0.014 0.129,0.028 0.195,0.053 0.302,0.126 0.608,0.245 0.941,0.378 l 0.104,0.04 c 0.578,0.227 1.178,0.462 1.764,0.721 0.401,0.178 0.804,0.432 1.275,0.799 0.485,0.381 0.719,0.914 0.657,1.501 -0.041,0.383 -0.223,0.71 -0.527,0.943 -0.369,0.283 -0.872,0.391 -1.414,0.306 -1.885,-0.292 -3.65,-1.988 -4.017,-3.859 -0.028,-0.139 -0.05,-0.155 -0.164,-0.186 -0.533,-0.142 -1.066,-0.288 -1.6,-0.435 L 2.74,-55.921 c -0.594,-0.163 -1.208,-0.331 -1.813,-0.491 -0.154,-0.041 -0.234,-0.045 -0.265,-0.041 -0.009,0.032 -0.02,0.105 -0.014,0.251 0.024,0.558 0.102,1.135 0.179,1.693 l 0.048,0.366 c 0.029,0.218 0.067,0.438 0.106,0.664 0.061,0.345 0.123,0.703 0.151,1.068 0.034,0.44 -0.059,0.742 -0.284,0.919 -0.34,0.271 -0.834,0.117 -0.994,0.065 -1.08,-0.338 -2.022,-0.904 -2.929,-1.765 0.14,0.366 0.28,0.739 0.407,1.112 0.147,0.43 0.413,0.83 0.772,1.158 2.219,2.032 3.838,3.872 5.096,5.787 0.627,0.954 1.302,2.119 1.559,3.522 0.032,0.171 0.1,0.905 -0.032,1.354 -0.001,0.017 -0.004,0.035 -0.006,0.058 -0.087,0.539 -0.331,0.923 -0.727,1.139 -0.415,0.23 -0.89,0.165 -1.302,-0.175 -0.236,-0.196 -0.507,-0.433 -0.73,-0.721 -0.311,-0.407 -0.6,-0.836 -0.858,-1.275 -1.5,-2.544 -2.643,-5.274 -3.685,-7.852 -0.459,-1.14 -1.188,-2.136 -2.107,-2.88 -2.395,-1.939 -4.522,-3.246 -6.697,-4.116 -0.445,-0.177 -0.928,-0.316 -1.436,-0.414 -0.735,-0.138 -1.384,-0.025 -1.876,0.332 -0.507,0.369 -0.828,0.975 -0.928,1.754 -0.199,1.552 0.126,3.026 0.471,4.263 0.759,2.729 2.068,5.278 4.001,7.793 1.64,2.135 3.418,3.663 5.435,4.672 0.247,0.124 0.515,0.239 0.78,0.348 l -0.24,-0.781 c -0.24,-0.783 -0.511,-1.672 -0.745,-2.535 -0.217,-0.805 -0.348,-1.636 -0.463,-2.371 -0.043,-0.27 0.079,-0.681 0.331,-0.861 0.298,-0.209 0.753,0.007 0.894,0.081 1.472,0.848 2.665,2.074 3.548,3.647 0.578,1.028 0.801,1.88 0.722,2.76 -0.069,0.778 -0.589,1.401 -1.297,1.55 -0.322,0.068 -0.655,0.058 -0.952,0.05 l -0.16,-0.005 c -0.025,0 -0.05,-0.002 -0.076,-0.003 1.125,3.346 2.507,6.918 4.222,10.909 0.061,0.141 0.11,0.18 0.254,0.201 0.528,0.076 1.057,0.155 1.587,0.233 l 0.591,0.088 c 0.508,0.075 1.015,0.151 1.524,0.224 0.201,0.029 0.374,0.136 0.485,0.302 0.11,0.165 0.143,0.365 0.092,0.563 -0.104,0.406 -0.211,0.814 -0.318,1.221 l -0.075,0.282 c -0.278,1.056 -0.593,2.253 -0.855,3.427 -0.462,2.071 -0.703,4.262 -0.717,6.511 0,0.018 0,0.049 10e-4,0.07 0.023,0.006 0.058,0.011 0.078,0.014 1.599,0.231 2.977,0.662 4.213,1.317 3.595,1.908 4.989,5.804 3.391,9.475 C 9.881,1.83 7.687,3.263 4.571,3.293 H 4.414 C 3.038,3.293 1.901,3.118 0.851,2.743 0.842,2.777 0.834,2.812 0.828,2.846 0.419,4.796 -0.646,6.568 -2.17,7.837 c -1.436,1.195 -3.028,1.982 -4.864,2.407 -1.565,0.363 -3.056,0.381 -4.565,0.055 -1.353,-0.291 -2.6,-0.839 -3.641,-1.338 -3.05,-1.457 -5.412,-3.534 -7.024,-6.172 -0.368,-0.605 -0.703,-1.232 -1.031,-1.847 L -23.34,0.857 c -0.175,-0.326 -0.354,-0.662 -0.536,-0.988 -0.302,-0.54 -0.921,-0.838 -1.525,-0.74 l -0.571,0.094 c -0.278,0.048 -0.564,0.096 -0.847,0.136 -1.348,0.185 -2.798,0.292 -4.264,-0.176 -2.841,-0.908 -4.402,-2.879 -4.514,-5.701 -0.065,-1.663 0.309,-3.301 1.143,-5.002 -0.249,-0.034 -0.487,-0.069 -0.726,-0.114 -0.917,-0.175 -2.101,-0.471 -3.124,-1.22 -1.026,-0.75 -1.458,-1.743 -1.323,-3.035 0.165,-1.586 0.845,-3.035 2.079,-4.43 1.667,-1.885 3.823,-3.333 6.594,-4.429 1.882,-0.745 3.496,-1.093 5.078,-1.097 0.726,0 1.674,0.056 2.577,0.494 0.851,0.412 1.136,1.079 0.825,1.928 -0.187,0.51 -0.421,0.963 -0.694,1.342 -0.316,0.441 -0.663,0.852 -0.998,1.251 l -0.021,0.025 c -0.144,0.17 -0.287,0.34 -0.428,0.512 -0.075,0.091 -0.11,0.148 -0.126,0.174 0.037,0.029 0.123,0.084 0.309,0.167 0.228,0.101 0.614,0.238 0.861,0.305 0.357,0.095 0.711,0.182 1.087,0.274 l 0.068,0.017 c -0.033,-0.354 -0.031,-0.671 -0.001,-0.971 l -0.242,-0.094 0.249,0.032 c 0.076,-0.665 0.292,-1.252 0.587,-1.986 0.21,-0.521 0.431,-1.047 0.677,-1.609 l 0.181,-0.412 c 0.833,-1.905 1.694,-3.875 2.236,-5.916 0.072,-0.27 0.226,-0.382 0.344,-0.43 0.118,-0.046 0.31,-0.067 0.552,0.083 0.118,0.074 0.238,0.145 0.357,0.217 l 0.072,0.043 c 0.274,0.165 0.558,0.335 0.828,0.526 2.078,1.47 4.032,2.622 5.972,3.522 3.049,1.415 6.436,2.591 10.98,3.812 0.186,0.05 0.369,0.096 0.563,0.143 -0.211,-0.41 -0.429,-0.833 -0.627,-1.259 -0.055,-0.118 -0.101,-0.165 -0.267,-0.21 -0.475,-0.126 -0.95,-0.25 -1.452,-0.378 -1.274,-0.328 -2.591,-0.668 -3.874,-1.094 -4.559,-1.512 -8.66,-3.753 -12.187,-6.658 l -0.057,-0.043 c -0.062,-0.047 -0.149,-0.111 -0.215,-0.211 -0.073,-0.108 -0.09,-0.224 -0.1,-0.3 l -0.092,-0.428 0.387,-0.038 c 0.019,-10e-4 0.038,-0.005 0.057,-0.007 0.07,-0.012 0.186,-0.033 0.324,-0.004 0.133,0.031 0.222,0.115 0.28,0.171 l 0.026,0.025 c 0.399,0.283 0.798,0.575 1.189,0.859 l 0.121,0.089 c 0.943,0.69 1.917,1.403 2.927,2.028 3.289,2.036 7.034,3.562 11.446,4.665 0.279,0.069 0.561,0.132 0.872,0.2 -0.113,-0.265 -0.228,-0.533 -0.353,-0.82 l -0.019,-0.043 c -0.303,-0.699 -0.616,-1.421 -0.888,-2.148 -0.596,-1.581 -1.19,-3.202 -1.714,-4.632 -0.404,-1.105 -0.809,-2.209 -1.219,-3.311 -0.025,-0.072 -0.098,-0.148 -0.121,-0.161 -1.654,-0.542 -3.214,-1.46 -4.632,-2.728 -3.458,-3.091 -5.852,-7.059 -7.114,-11.793 -0.391,-1.463 -0.465,-2.792 -0.226,-4.063 0.201,-1.068 0.685,-1.888 1.401,-2.371 0.695,-0.468 1.6,-0.607 2.617,-0.404 0.763,0.153 1.556,0.413 2.357,0.768 2.397,1.057 4.477,2.574 6.222,3.966 l -0.14,-0.376 c -0.412,-1.108 -0.837,-2.256 -1.247,-3.384 -0.008,-0.02 -0.018,-0.042 -0.043,-0.088 -0.074,-0.142 -0.183,-0.359 -0.098,-0.587 0.05,-0.134 0.159,-0.239 0.305,-0.296 0.156,-0.063 0.311,-0.061 0.445,0.005 0.219,0.109 0.285,0.342 0.333,0.509 0.009,0.031 0.016,0.06 0.025,0.082 0.997,2.213 2.475,3.664 4.522,4.439 -0.014,-0.185 -0.043,-0.38 -0.071,-0.571 l -0.008,-0.052 c -0.014,-0.099 -0.03,-0.199 -0.043,-0.3 -0.031,-0.251 -0.065,-0.5 -0.1,-0.751 l -0.014,-0.102 c -0.09,-0.648 -0.19,-1.381 -0.236,-2.1 -0.025,-0.422 0.082,-0.741 0.318,-0.949 0.239,-0.21 0.581,-0.275 1.016,-0.195 0.756,0.144 1.504,0.341 2.23,0.536 l 0.073,0.019 c 0.398,0.107 0.8,0.232 1.177,0.351 l 0.235,0.073 c 0.535,-0.975 1.053,-1.169 2.239,-0.867 0.773,0.195 1.532,0.467 2.265,0.729 l 0.102,0.036 c 0.245,0.088 0.483,0.212 0.691,0.319 0.118,0.061 0.238,0.124 0.359,0.178 0.087,0.038 0.179,0.071 0.295,0.112 0.171,0.058 0.322,0.111 0.474,0.192 0.236,0.126 0.472,0.27 0.742,0.434 0.143,0.087 0.29,0.175 0.435,0.258 0.136,0.077 0.277,0.151 0.439,0.234 l 0.037,0.02 c 0.26,0.133 0.529,0.273 0.785,0.44 0.605,0.394 1.198,0.797 1.854,1.245 l 0.31,0.211 c -0.184,-0.511 -0.361,-1.001 -0.541,-1.483 -0.009,-0.006 -0.022,-0.015 -0.041,-0.025 -0.841,-0.409 -1.716,-0.831 -2.6,-1.253 -0.197,-0.092 -0.348,-0.154 -0.528,-0.1 -0.254,0.084 -0.497,-0.047 -0.725,-0.19 -0.125,-0.079 -0.187,-0.217 -0.182,-0.413 0.007,-0.216 0.081,-0.365 0.22,-0.444 0.15,-0.081 0.311,-0.112 0.463,-0.143 l 0.062,-0.01 c 0.081,-0.016 0.165,-0.023 0.251,-0.029 0.051,-0.003 0.153,-0.009 0.171,-0.015 0.35,-0.262 0.699,-0.555 0.98,-0.79 l 0.031,-0.027 c 0.186,-0.154 0.371,-0.309 0.576,-0.465 10e-4,-0.003 0,-0.025 -0.026,-0.102 -0.863,-2.671 -1.834,-5.844 -2.496,-9.121 -0.209,-1.036 -0.426,-2.109 -0.267,-3.251 0.089,-0.642 0.39,-0.901 0.627,-1.002 0.11,-0.047 0.226,-0.071 0.345,-0.071 0.242,0 0.495,0.091 0.754,0.275 1.487,1.043 2.61,2.154 3.432,3.396 1.257,1.896 1.632,3.805 1.148,5.839 -0.348,1.471 -1.087,2.848 -2.257,4.211 -0.033,0.039 -0.057,0.103 -0.064,0.133 0.308,0.97 0.648,1.936 0.943,2.766 0.008,0.021 0.05,0.066 0.07,0.076 2.033,0.899 3.784,1.477 5.508,1.816 1.376,0.271 2.753,0.373 4.105,0.304 0.162,0 0.286,0.076 0.387,0.138 0.015,0.009 0.031,0.021 0.048,0.029 l 0.518,0.244 z" /></g><g
           transform="translate(29.0884,49.6309)"
           id="g36"><path
             id="path38"
             style="fill:#015e5b;fill-opacity:1;fill-rule:nonzero;stroke:none"
             d="M 0,0 C 0.271,1.179 0.468,2.058 0.6,2.684 2.368,2.75 4.202,2.741 6.054,2.658 6.584,2.635 7.349,2.588 8.323,2.519 8.63,2.49 8.875,2.435 9.052,2.352 9.212,2.275 9.327,2.131 9.404,1.905 9.435,1.831 9.509,1.777 9.647,1.731 9.759,1.694 9.856,1.675 9.944,1.671 10.052,1.666 10.129,1.673 10.18,1.725 l 0.04,0.041 -0.004,0.056 C 10.183,2.253 9.866,2.586 9.274,2.813 8.897,2.96 8.266,3.079 7.397,3.166 5.915,3.31 4.374,3.39 2.816,3.403 2.064,3.409 1.186,3.396 0.203,3.361 0.048,3.41 -0.098,3.442 -0.233,3.457 -0.305,3.464 -0.523,3.488 -0.595,3.334 -2.464,3.247 -4.343,3.074 -6.181,2.82 -6.952,2.712 -7.795,2.574 -8.688,2.409 -8.796,2.389 -8.992,2.353 -9.279,2.302 -9.566,2.251 -9.786,2.211 -9.938,2.184 c -0.153,-0.03 -0.343,-0.072 -0.571,-0.125 -0.228,-0.056 -0.439,-0.112 -0.632,-0.171 -0.085,-0.03 -0.106,-0.094 -0.111,-0.119 -0.012,-0.064 0.015,-0.123 0.1,-0.194 l 0.237,-0.136 c 0.245,-0.109 0.468,-0.153 0.664,-0.127 0.425,0.063 0.858,0.118 1.289,0.162 0.089,0.009 0.127,0.052 0.144,0.088 1.463,0.272 2.376,0.439 2.642,0.482 1.215,0.185 2.579,0.346 4.055,0.475 0.307,0.025 0.756,0.057 1.346,0.095 -0.514,-2.055 -1.21,-5.133 -2.072,-9.151 -0.853,-4.019 -1.423,-7.265 -1.695,-9.648 -0.116,-1.041 -0.173,-1.802 -0.173,-2.332 0,-1.133 0.318,-1.958 0.945,-2.449 0.191,-0.142 0.433,-0.23 0.697,-0.257 0.037,-0.01 0.078,-0.015 0.123,-0.015 0.041,0 0.085,0.004 0.133,0.012 0.111,0.019 0.152,0.079 0.166,0.123 0.022,0.068 -0.003,0.138 -0.074,0.207 -0.432,0.42 -0.651,1.111 -0.651,2.056 0,0.371 0.047,1.046 0.139,2.003 0.13,1.299 0.344,2.794 0.635,4.442 v 10e-4 c 0.429,2.517 1.125,5.91 2.069,10.083 C -0.455,-1.967 -0.276,-1.195 0,0" /></g><g
           transform="translate(34.3486,34.6387)"
           id="g40"><path
             id="path42"
             style="fill:#015e5b;fill-opacity:1;fill-rule:nonzero;stroke:none"
             d="M 0,0 C 0.24,0.642 0.545,1.276 0.908,1.89 1.064,2.167 1.254,2.457 1.475,2.755 1.489,2.777 1.521,2.828 1.573,2.908 1.613,2.971 1.654,3.033 1.695,3.095 1.697,3.026 1.696,2.97 1.694,2.924 1.69,2.864 1.683,2.774 1.672,2.658 1.661,2.535 1.656,2.453 1.656,2.426 1.614,1.921 1.521,1.453 1.381,1.032 1.231,0.582 1.005,0.228 0.708,-0.022 0.42,-0.266 0.143,-0.384 -0.136,-0.384 H -0.139 C -0.079,-0.217 -0.033,-0.089 0,0 M 8.033,-2.844 H 8.032 Z M 13.99,2.018 C 13.932,1.895 13.851,1.716 13.745,1.479 13.633,1.232 13.549,1.049 13.492,0.928 13.392,0.721 13.125,0.207 12.698,-0.596 12.354,-1.211 12.077,-1.673 11.852,-2.01 l -10e-4,-0.001 c -0.122,-0.188 -0.229,-0.34 -0.321,-0.452 0,0.002 0,0.004 0.001,0.005 0.02,0.216 0.081,0.521 0.18,0.91 0.142,0.594 0.3,1.113 0.47,1.548 0.375,1.019 0.855,1.926 1.427,2.696 0.124,0.166 0.245,0.305 0.36,0.416 0.051,-0.35 0.057,-0.718 0.022,-1.094 m -0.266,-3.102 c -0.072,-0.444 -0.135,-0.88 -0.189,-1.306 -0.1,-0.849 -0.162,-1.508 -0.183,-1.945 -0.044,-0.292 -0.056,-0.649 -0.034,-1.061 0.023,-0.423 0.125,-0.771 0.301,-1.031 0.061,-0.093 0.192,-0.166 0.413,-0.235 0.074,-0.024 0.165,-0.046 0.255,-0.046 0.091,0 0.181,0.023 0.252,0.096 0.198,0.294 0.437,0.537 0.71,0.72 l 0.055,0.038 v 0.067 c 0,0.073 -0.054,0.125 -0.128,0.183 -0.259,0.148 -0.443,0.187 -0.581,0.122 -0.046,-0.022 -0.1,-0.054 -0.163,-0.094 0.011,0.097 0.026,0.211 0.046,0.342 0.04,0.268 0.063,0.436 0.07,0.499 0.089,0.784 0.16,1.339 0.215,1.699 0.228,1.483 0.448,2.724 0.656,3.69 0.373,1.808 0.975,4.345 1.789,7.541 0.485,1.932 0.793,3.232 0.917,3.864 0.011,0.05 0.008,0.149 -0.125,0.237 -0.063,0.042 -0.143,0.079 -0.239,0.112 -0.091,0.029 -0.18,0.054 -0.272,0.072 -0.094,0.02 -0.181,0.028 -0.259,0.025 C 17.075,12.496 17.024,12.422 17.01,12.367 16.54,10.774 15.897,8.357 15.101,5.184 14.956,4.615 14.832,4.121 14.729,3.702 14.639,3.79 14.521,3.859 14.375,3.913 14.114,4.006 13.859,4.032 13.613,3.993 13.414,3.953 13.211,3.854 13.012,3.7 12.818,3.551 12.666,3.408 12.559,3.273 12.46,3.151 12.339,2.985 12.188,2.767 11.803,2.215 11.483,1.668 11.246,1.154 11.227,1.123 11.182,1.026 10.985,0.55 9.918,-0.789 8.96,-1.899 8.136,-2.755 L 8.129,-2.717 C 8.126,-2.704 8.125,-2.692 8.125,-2.666 8.104,-2.521 8.107,-2.339 8.135,-2.122 8.14,-2.06 8.192,-1.713 8.414,-0.42 8.778,1.638 8.97,2.745 9.019,3.065 9.033,3.174 8.967,3.268 8.825,3.344 8.724,3.398 8.604,3.443 8.468,3.479 8.333,3.514 8.213,3.531 8.119,3.531 H 8.117 C 7.765,3.554 7.445,3.412 7.156,3.105 6.865,2.808 6.497,2.318 6.063,1.652 5.187,0.312 4.43,-1.067 3.811,-2.443 c 0.027,0.122 0.055,0.244 0.085,0.367 0.172,0.722 0.44,1.756 0.797,3.074 0.36,1.326 0.586,2.173 0.682,2.547 C 5.399,3.676 5.279,3.764 5.238,3.794 5.162,3.848 5.069,3.894 4.962,3.93 4.861,3.963 4.755,3.992 4.646,4.015 4.533,4.038 4.433,4.046 4.347,4.043 4.162,4.036 4.116,3.939 4.105,3.885 3.997,3.354 3.827,2.552 3.593,1.481 L 3.458,0.857 2.839,0.032 C 2.765,-0.068 2.619,-0.252 2.405,-0.521 2.192,-0.786 2.026,-0.98 1.912,-1.099 1.793,-1.22 1.628,-1.386 1.417,-1.598 1.21,-1.805 1.025,-1.969 0.865,-2.086 0.698,-2.21 0.506,-2.339 0.297,-2.47 0.084,-2.603 -0.13,-2.715 -0.347,-2.81 c -0.012,-0.006 -0.046,-0.021 -0.099,-0.044 -0.005,-0.002 -0.012,-0.004 -0.019,-0.008 -0.003,0.009 -0.005,0.021 -0.007,0.032 -0.08,0.263 -0.104,0.573 -0.07,0.921 0.032,0.303 0.123,0.691 0.271,1.156 0.466,-0.108 0.929,-0.064 1.38,0.132 0.483,0.212 0.852,0.558 1.095,1.027 0.215,0.417 0.34,1.001 0.369,1.736 C 2.588,2.544 2.563,2.85 2.497,3.072 2.495,3.106 2.488,3.158 2.475,3.221 2.443,3.434 2.366,3.599 2.248,3.708 2.136,3.813 1.969,3.891 1.751,3.938 1.4,4.012 1.09,3.917 0.83,3.657 0.568,3.395 0.299,3.071 0.029,2.691 -0.404,2.078 -0.8,1.367 -1.147,0.579 -1.177,0.51 -1.202,0.447 -1.226,0.384 L -1.23,0.374 -1.25,0.379 C -1.262,0.386 -1.276,0.395 -1.287,0.397 -1.3,0.413 -1.318,0.427 -1.354,0.452 l -0.021,0.014 c -0.097,0.096 -0.166,0.197 -0.211,0.306 -0.084,0.194 -0.106,0.47 -0.066,0.823 0.02,0.204 0.088,0.497 0.2,0.872 0.185,0.648 0.194,0.696 0.198,0.717 0.011,0.075 -0.015,0.184 -0.196,0.274 -0.1,0.051 -0.218,0.093 -0.352,0.125 -0.132,0.03 -0.244,0.049 -0.34,0.057 C -2.48,3.668 -2.786,3.53 -3.057,3.219 -3.265,2.973 -3.566,2.487 -3.978,1.729 -4.536,0.684 -5.051,-0.444 -5.514,-1.632 c 0.17,0.683 0.401,1.565 0.689,2.63 0.373,1.373 0.589,2.18 0.681,2.546 0.018,0.09 -0.028,0.173 -0.14,0.248 -0.074,0.048 -0.161,0.091 -0.267,0.13 -0.104,0.039 -0.212,0.07 -0.32,0.093 -0.117,0.024 -0.217,0.033 -0.3,0.028 C -5.354,4.036 -5.401,3.94 -5.413,3.885 -5.521,3.354 -5.691,2.552 -5.924,1.481 -6.158,0.411 -6.329,-0.392 -6.436,-0.917 -6.45,-0.976 -6.477,-1.1 -6.518,-1.289 l -0.086,-0.41 c -0.018,-0.087 -0.042,-0.214 -0.07,-0.381 -0.03,-0.167 -0.051,-0.307 -0.066,-0.42 -0.014,-0.114 -0.027,-0.243 -0.038,-0.391 -0.011,-0.146 -0.017,-0.285 -0.017,-0.418 0,-0.131 0.007,-0.263 0.023,-0.39 0.039,-0.35 0.144,-0.617 0.315,-0.797 0.059,-0.059 0.159,-0.093 0.309,-0.109 0.102,-0.023 0.313,-0.07 0.35,0.08 0.393,1.106 0.856,2.218 1.376,3.307 0.576,1.2 1.084,2.144 1.512,2.811 -0.016,-0.424 0.086,-0.767 0.306,-1.027 0.248,-0.293 0.646,-0.519 1.184,-0.676 -0.297,-0.794 -0.444,-1.432 -0.438,-1.897 0.015,-0.639 0.199,-1.07 0.546,-1.28 0.363,-0.212 0.751,-0.319 1.152,-0.319 0.503,0 1.089,0.286 1.741,0.849 0.488,0.416 0.972,0.945 1.442,1.577 C 3.016,-1.213 3.009,-1.25 3,-1.288 L 2.914,-1.699 C 2.896,-1.786 2.873,-1.913 2.844,-2.08 2.814,-2.248 2.792,-2.388 2.778,-2.5 2.763,-2.614 2.75,-2.744 2.74,-2.891 2.729,-3.037 2.723,-3.176 2.723,-3.309 c 0,-0.136 0.007,-0.268 0.023,-0.39 0.039,-0.35 0.144,-0.617 0.315,-0.797 0.036,-0.036 0.089,-0.065 0.161,-0.082 L 3.22,-4.592 3.225,-4.579 C 3.27,-4.59 3.32,-4.6 3.379,-4.604 c 0.145,-0.037 0.222,-0.033 0.278,0 l 0.049,0.038 0.014,0.042 c 0.305,0.872 0.849,1.97 1.617,3.265 0.309,0.523 0.562,0.945 0.759,1.264 0.194,0.313 0.45,0.69 0.76,1.119 C 7.094,1.452 7.333,1.75 7.568,2.015 7.533,1.839 7.49,1.633 7.441,1.396 7.345,0.929 7.271,0.581 7.219,0.347 7.118,-0.201 7.038,-0.778 6.981,-1.368 6.929,-1.934 6.926,-2.313 6.972,-2.523 c 0.058,-0.313 0.29,-0.568 0.689,-0.758 0.387,-0.184 0.734,-0.24 1.047,-0.168 0.033,0.011 0.063,0.028 0.088,0.049 0.016,0.008 0.035,0.023 0.057,0.046 0.136,0.172 0.42,0.521 0.85,1.043 0.235,0.287 0.435,0.534 0.605,0.745 -0.122,-0.545 -0.133,-0.957 -0.034,-1.251 0.098,-0.312 0.345,-0.54 0.735,-0.679 0.378,-0.135 0.724,-0.148 1.026,-0.036 0.429,0.172 0.814,0.622 1.176,1.375 0.183,0.373 0.354,0.732 0.513,1.073" /></g><g
           transform="translate(53.1128,30.0947)"
           id="g44"><path
             id="path46"
             style="fill:#015e5b;fill-opacity:1;fill-rule:nonzero;stroke:none"
             d="m 0,0 c -0.021,-0.081 -0.038,-0.147 -0.052,-0.198 -0.606,-2.232 -1.163,-4 -1.656,-5.257 -0.261,-0.663 -0.498,-1.203 -0.706,-1.607 -0.578,-1.119 -1.178,-1.901 -1.795,-2.335 -0.012,-0.009 -0.062,-0.041 -0.275,-0.133 l -0.006,0.006 c -0.033,0.037 -0.057,0.065 -0.064,0.074 -0.135,0.242 -0.217,0.583 -0.243,1.012 -0.035,0.683 0.114,1.43 0.443,2.22 0.185,0.44 0.427,0.91 0.719,1.402 0.297,0.496 0.569,0.918 0.809,1.253 0.25,0.349 0.572,0.781 0.956,1.285 C -1.276,-1.503 -0.649,-0.738 0,0 M 6.239,7.186 V 7.185 C 5.525,6.641 3.245,4.568 2.357,3.698 2.711,5.237 3.019,6.694 3.273,8.032 3.317,8.229 3.064,8.338 2.968,8.379 2.787,8.456 2.609,8.502 2.44,8.517 2.308,8.529 2.121,8.532 2.036,8.411 L 2.013,8.378 V 8.304 C 1.638,7.476 1.125,6.471 0.487,5.315 -0.289,3.913 -0.952,2.879 -1.485,2.241 -1.624,2.065 -1.75,1.925 -1.864,1.816 c 0.002,0.04 0.005,0.08 0.009,0.121 0.027,0.334 0.099,0.775 0.213,1.309 C -1.428,4.193 -1,5.798 -0.369,8.023 -0.353,8.109 -0.396,8.192 -0.497,8.271 -0.57,8.327 -0.662,8.372 -0.777,8.409 -0.88,8.441 -0.983,8.472 -1.087,8.498 -1.202,8.525 -1.3,8.535 -1.386,8.534 -1.573,8.525 -1.618,8.428 -1.627,8.374 -1.671,8.16 -1.782,7.661 -1.962,6.879 -2.146,6.073 -2.286,5.437 -2.388,4.936 -2.492,4.424 -2.578,3.91 -2.644,3.392 -2.645,3.369 -2.655,3.294 -2.674,3.168 L -2.718,2.88 C -2.725,2.829 -2.734,2.734 -2.746,2.599 -2.757,2.458 -2.76,2.354 -2.756,2.283 c 0.004,-0.065 0.01,-0.156 0.022,-0.271 0.01,-0.122 0.031,-0.227 0.06,-0.311 0.027,-0.078 0.066,-0.163 0.116,-0.251 0.053,-0.096 0.118,-0.178 0.187,-0.237 0.078,-0.079 0.194,-0.127 0.359,-0.147 0.073,0 0.116,0.004 0.144,0.01 0.037,-0.006 0.083,-0.01 0.139,-0.01 h 0.001 c 0.26,0.01 0.538,0.174 0.854,0.505 0.263,0.293 0.579,0.726 0.941,1.29 0.346,0.561 0.74,1.27 1.175,2.118 C 0.997,3.928 0.735,2.851 0.461,1.762 -0.507,0.749 -1.426,-0.294 -2.271,-1.337 -3.578,-2.96 -4.533,-4.35 -5.108,-5.465 c -0.423,-0.816 -0.671,-1.597 -0.736,-2.32 -0.09,-0.958 0.076,-1.632 0.492,-2.001 0.293,-0.271 0.666,-0.42 1.108,-0.443 0.042,-0.002 0.083,-0.003 0.123,-0.003 0.388,0 0.732,0.099 1.023,0.293 0.545,0.353 1.068,0.909 1.558,1.655 0.305,0.478 0.587,1.017 0.839,1.599 0.522,1.198 1.09,2.877 1.687,4.997 0.35,1.217 0.689,2.505 1.006,3.83 0.181,0.181 0.669,0.663 1.463,1.446 0.85,0.84 2.936,2.827 3.35,3.285 L 6.897,6.974 6.735,7.096 C 6.575,7.192 6.376,7.289 6.239,7.186" /></g></g></g></g></svg>